<svg viewBox="3 3 18 16" fill="none" xmlns="http://www.w3.org/2000/svg">
  <g id="sad-antenna" style="transform-origin:12px 7.5px">
    <rect x="7" y="4.5" width="1" height="3" rx="0.5" fill="#e53935"/>
    <circle cx="7.5" cy="4.2" r="0.8" fill="#e53935"/>
    <rect x="16" y="4.5" width="1" height="3" rx="0.5" fill="#e53935"/>
    <circle cx="16.5" cy="4.2" r="0.8" fill="#e53935"/>
  </g>
  <rect x="4.5" y="8.5" width="15" height="10" rx="2" fill="#e53935"/>
  <circle class="eye-white" id="sad-eyeL" cx="8" cy="12" r="1.8" fill="white"/>
  <circle class="eye-white" id="sad-eyeR" cx="16" cy="12" r="1.8" fill="white"/>
  <circle class="pupil" id="sad-pupilL" cx="8" cy="12" r="0.75" fill="#e53935"/>
  <circle class="pupil" id="sad-pupilR" cx="16" cy="12" r="0.75" fill="#e53935"/>
  <g id="sad-blink" opacity="0">
    <line x1="6.2" y1="12" x2="9.8" y2="12" stroke="white" stroke-width="0.5" stroke-linecap="round"/>
    <line x1="14.2" y1="12" x2="17.8" y2="12" stroke="white" stroke-width="0.5" stroke-linecap="round"/>
  </g>
  <g id="sad-droop" opacity="0">
    <path d="M6.2 11.8 Q8 13.5 9.8 11.8" stroke="white" stroke-width="1.1" stroke-linecap="round" fill="none"/>
    <path d="M14.2 11.8 Q16 13.5 17.8 11.8" stroke="white" stroke-width="1.1" stroke-linecap="round" fill="none"/>
  </g>
  <g id="sad-mouth">
    <path data-state="frown" d="M9 16.8 Q12 14.5 15 16.8" stroke="white" stroke-width="1" stroke-linecap="round" fill="none"/>
    <path data-state="deep-frown" d="M9.5 17.2 Q12 13.5 14.5 17.2" stroke="white" stroke-width="1.2" stroke-linecap="round" fill="none" opacity="0"/>
    <path data-state="tremble" d="M9.2 17 Q12 14.8 14.8 17" stroke="white" stroke-width="0.8" stroke-linecap="round" fill="none" opacity="0"/>
  </g>
</svg>
